<svg xmlns="http://www.w3.org/2000/svg" xmlns:xlink="http://www.w3.org/1999/xlink" xmlns:xodm="http://www.corel.com/coreldraw/odm/2003" xml:space="preserve" version="1.1" style="shape-rendering:geometricPrecision;text-rendering:geometricPrecision;image-rendering:optimizeQuality;" viewBox="0 0 8.4666 10.58325" x="0px" y="0px" fill-rule="evenodd" clip-rule="evenodd"><defs><style type="text/css">
   
    .fil0 {fill:black}
   
  </style></defs><g><path class="fil0" d="M3.4715 2.912l1.5236 0c0.0816,0 0.1558,0.0333 0.2094,0.0869 0.0536,0.0536 0.0869,0.1278 0.0869,0.2094l0 4.5064c0,0.0816 -0.0333,0.1558 -0.0869,0.2094 -0.0536,0.0536 -0.1278,0.0869 -0.2094,0.0869l-1.5236 0c-0.0816,0 -0.1558,-0.0333 -0.2094,-0.0869 -0.0536,-0.0536 -0.0869,-0.1278 -0.0869,-0.2094l0 -4.5064c0,-0.0816 0.0333,-0.1558 0.0869,-0.2094 0.0536,-0.0536 0.1278,-0.0869 0.2094,-0.0869zm-2.0712 4.6345c0.0701,0 0.127,0.0569 0.127,0.127 0,0.0701 -0.0569,0.127 -0.127,0.127l-0.3056 0c-0.0701,0 -0.127,-0.0569 -0.127,-0.127 0,-0.0701 0.0569,-0.127 0.127,-0.127l0.3056 0zm5.4854 0c0.0701,0 0.127,0.0569 0.127,0.127 0,0.0701 -0.0569,0.127 -0.127,0.127l-0.3056 0c-0.0701,0 -0.127,-0.0569 -0.127,-0.127 0,-0.0701 0.0569,-0.127 0.127,-0.127l0.3056 0zm-0.4934 -0.1525c0,0.0701 -0.0569,0.127 -0.127,0.127 -0.0701,0 -0.127,-0.0569 -0.127,-0.127l0 -0.7176c0,-0.0701 0.0569,-0.127 0.127,-0.127 0.0701,0 0.127,0.0569 0.127,0.127l0 0.7176zm-2.2493 0.1525c0.0701,0 0.127,0.0569 0.127,0.127 0,0.0701 -0.0569,0.127 -0.127,0.127l-0.3056 0c-0.0701,0 -0.127,-0.0569 -0.127,-0.127 0,-0.0701 0.0569,-0.127 0.127,-0.127l0.3056 0zm-0.4934 -0.1525c0,0.0701 -0.0569,0.127 -0.127,0.127 -0.0701,0 -0.127,-0.0569 -0.127,-0.127l0 -0.7176c0,-0.0701 0.0569,-0.127 0.127,-0.127 0.0701,0 0.127,0.0569 0.127,0.127l0 0.7176zm-2.7427 0c0,0.0701 -0.0569,0.127 -0.127,0.127 -0.0701,0 -0.127,-0.0569 -0.127,-0.127l0 -0.7176c0,-0.0701 0.0569,-0.127 0.127,-0.127 0.0701,0 0.127,0.0569 0.127,0.127l0 0.7176zm3.0928 -4.7484c-0.0701,0 -0.127,-0.0569 -0.127,-0.127 0,-0.0701 0.0569,-0.127 0.127,-0.127l0.1071 0 0.0001 -0.4617c-0.1016,-0.024 -0.1926,-0.0761 -0.264,-0.1475 -0.0726,-0.0726 -0.1253,-0.1655 -0.1487,-0.2691 -0.0948,-0.0152 -0.1806,-0.0596 -0.2475,-0.1234l-0.0081 -0.0075c-0.0842,-0.0842 -0.1367,-0.2008 -0.1367,-0.3289l0 -0.329c0,-0.0701 0.0569,-0.127 0.127,-0.127l0.2518 0 0 -0.0149c0,-0.0701 0.0569,-0.127 0.127,-0.127l0.8512 0c0.0701,0 0.127,0.0569 0.127,0.127l0 0.0149 0.2518 0c0.0701,0 0.127,0.0569 0.127,0.127l0 0.329c0,0.1281 -0.0525,0.2447 -0.1367,0.3289l-0.0081 0.0075c-0.0669,0.0638 -0.1527,0.1082 -0.2475,0.1234 -0.0234,0.1036 -0.0761,0.1965 -0.1487,0.2691 -0.0713,0.0713 -0.1623,0.1235 -0.2638,0.1475l-0.0001 0.4617 0.1072 0c0.0701,0 0.127,0.0569 0.127,0.127 0,0.0701 -0.0569,0.127 -0.127,0.127l-0.4673 0zm-0.319 -1.7941l-0.1248 0 0 0.202c0,0.058 0.024,0.111 0.0623,0.1493l0.0052 0.0055c0.0167,0.0156 0.0361,0.0286 0.0573,0.0382l0 -0.395zm1.1052 0.395c0.0212,-0.0096 0.0406,-0.0226 0.0573,-0.0382l0.0052 -0.0055c0.0383,-0.0383 0.0623,-0.0913 0.0623,-0.1493l0 -0.202 -0.1248 0 0 0.395zm1.4376 2.814l1.5235 0c0.0816,0 0.1558,0.0333 0.2094,0.0869 0.0536,0.0536 0.0869,0.1278 0.0869,0.2094l0 3.3579c0,0.0816 -0.0333,0.1558 -0.0869,0.2094 -0.0536,0.0536 -0.1278,0.0869 -0.2094,0.0869l-1.5235 0c-0.0816,0 -0.1558,-0.0333 -0.2094,-0.0869 -0.0536,-0.0536 -0.0869,-0.1278 -0.0869,-0.2094l0 -3.3579c0,-0.0816 0.0333,-0.1558 0.0869,-0.2094 0.0536,-0.0536 0.1278,-0.0869 0.2094,-0.0869zm-5.5039 0.9012l1.5235 0c0.0816,0 0.1558,0.0333 0.2094,0.0869 0.0536,0.0536 0.0869,0.1278 0.0869,0.2094l0 2.4567c0,0.0816 -0.0333,0.1558 -0.0869,0.2094 -0.0536,0.0536 -0.1278,0.0869 -0.2094,0.0869l-1.5235 0c-0.0816,0 -0.1558,-0.0333 -0.2094,-0.0869 -0.0536,-0.0536 -0.0869,-0.1278 -0.0869,-0.2094l0 -2.4567c0,-0.0816 0.0333,-0.1558 0.0869,-0.2094 0.0536,-0.0536 0.1278,-0.0869 0.2094,-0.0869z"/></g><text x="0" y="23.4666" fill="#000000" font-size="5px" font-weight="bold" font-family="'Helvetica Neue', Helvetica, Arial-Unicode, Arial, Sans-serif">Created by Imron Sadewo</text><text x="0" y="28.4666" fill="#000000" font-size="5px" font-weight="bold" font-family="'Helvetica Neue', Helvetica, Arial-Unicode, Arial, Sans-serif">from the Noun Project</text></svg>